<svg width="22" height="10" viewBox="0 0 22 10" fill="none" xmlns="http://www.w3.org/2000/svg">
<path d="M7.85352 2.98828C7.75586 2.98828 7.64453 2.96875 7.51953 2.92969C7.39453 2.88672 7.33203 2.79883 7.33203 2.66602C7.33203 2.61523 7.35938 2.54297 7.41406 2.44922C7.47266 2.35547 7.5293 2.25977 7.58398 2.16211C7.63867 2.06055 7.66602 1.97852 7.66602 1.91602C7.66602 1.7832 7.57227 1.68555 7.38477 1.62305C7.19727 1.56445 6.88281 1.53516 6.44141 1.53516C5.8125 1.55859 5.25195 1.60547 4.75977 1.67578C4.26758 1.74609 3.82031 1.83789 3.41797 1.95117C3.15625 2.02539 2.89844 2.10547 2.64453 2.19141C2.39062 2.27344 2.13477 2.36133 1.87695 2.45508C1.74414 2.50586 1.60938 2.55469 1.47266 2.60156C1.33594 2.64844 1.19336 2.69727 1.04492 2.74805L0.96875 2.77148C0.929688 2.7793 0.90625 2.7832 0.898438 2.7832C0.777344 2.7832 0.675781 2.73242 0.59375 2.63086C0.515625 2.52539 0.476562 2.41211 0.476562 2.29102C0.476562 2.14258 0.648438 1.96875 0.992188 1.76953C1.33984 1.57031 1.81055 1.375 2.4043 1.18359C2.99023 1 3.64062 0.847656 4.35547 0.726562C5.07031 0.605469 5.78906 0.544922 6.51172 0.544922C7.34766 0.544922 7.96094 0.669922 8.35156 0.919922C8.74219 1.16992 8.94141 1.48633 8.94922 1.86914C8.94922 1.9668 8.90234 2.10547 8.80859 2.28516C8.71484 2.46484 8.58594 2.62695 8.42188 2.77148C8.25781 2.91602 8.06836 2.98828 7.85352 2.98828ZM1.0625 9.43359C0.9375 9.43359 0.832031 9.40039 0.746094 9.33398C0.660156 9.27148 0.617188 9.17773 0.617188 9.05273C0.617188 9.00977 0.621094 8.96289 0.628906 8.91211C0.640625 8.85742 0.662109 8.79883 0.693359 8.73633C0.990234 8.12305 1.28711 7.5332 1.58398 6.9668C1.88086 6.40039 2.16602 5.87109 2.43945 5.37891C2.57617 5.13281 2.70898 4.89844 2.83789 4.67578C2.9707 4.44922 3.09766 4.23438 3.21875 4.03125C3.57812 3.44141 3.89258 2.97266 4.16211 2.625C4.43164 2.27344 4.61719 2.09766 4.71875 2.09766C4.85547 2.09766 4.95703 2.13672 5.02344 2.21484C5.08984 2.29297 5.12305 2.38477 5.12305 2.49023C5.12305 2.56836 5.10156 2.6543 5.05859 2.74805L3.4707 6.00586C3.29883 6.36523 3.11914 6.73438 2.93164 7.11328C2.74414 7.48828 2.57422 7.82422 2.42188 8.12109C2.27344 8.41406 2.16602 8.61523 2.09961 8.72461C1.98242 8.96289 1.82422 9.14062 1.625 9.25781C1.42969 9.375 1.24219 9.43359 1.0625 9.43359ZM5.63914 9.14648C5.50633 9.14648 5.34812 9.10938 5.16453 9.03516C4.98094 8.96094 4.81883 8.83789 4.6782 8.66602C4.54148 8.49414 4.47312 8.26367 4.47312 7.97461C4.47312 7.73242 4.52781 7.42969 4.63719 7.06641C4.74656 6.70312 4.91844 6.3457 5.15281 5.99414C5.38719 5.63477 5.68602 5.33594 6.0493 5.09766C6.41648 4.85938 6.84031 4.74023 7.32078 4.74023C7.49266 4.74023 7.64305 4.76172 7.77195 4.80469C7.90086 4.84766 8.01023 4.89453 8.10008 4.94531C8.15086 4.97656 8.19773 5.00977 8.2407 5.04492C8.28758 5.07617 8.33055 5.11133 8.36961 5.15039L8.57469 5.05078C8.63328 5.02344 8.69383 5 8.75633 4.98047C8.82273 4.95703 8.87937 4.94531 8.92625 4.94531C9.07469 4.94531 9.19578 4.98633 9.28953 5.06836C9.38328 5.15039 9.43016 5.24023 9.43016 5.33789C9.43016 5.36914 9.4282 5.39062 9.4243 5.40234C9.39695 5.51172 9.34617 5.66211 9.27195 5.85352C9.20164 6.04492 9.12547 6.25781 9.04344 6.49219C8.96141 6.71875 8.89109 6.9375 8.8325 7.14844C8.77781 7.35938 8.75047 7.5332 8.75047 7.66992C8.75047 7.78711 8.77 7.88477 8.80906 7.96289C8.84812 8.03711 8.91453 8.07422 9.00828 8.07422C9.12156 8.07422 9.27391 8.00977 9.46531 7.88086C9.65672 7.74805 9.85398 7.5918 10.0571 7.41211C10.1665 7.31445 10.2798 7.21094 10.397 7.10156C10.5141 6.98828 10.6333 6.86914 10.7544 6.74414C10.8169 6.69336 10.8774 6.66797 10.936 6.66797C11.0141 6.66797 11.0786 6.70703 11.1294 6.78516C11.1841 6.85938 11.2114 6.94336 11.2114 7.03711C11.2114 7.14648 11.1743 7.23828 11.1001 7.3125C10.9438 7.45703 10.7837 7.61133 10.6196 7.77539C10.4555 7.93945 10.229 8.14062 9.93992 8.37891C9.68211 8.58984 9.41648 8.77148 9.14305 8.92383C8.86961 9.07227 8.62352 9.14648 8.40477 9.14648C8.13133 9.14648 7.93211 9.04102 7.80711 8.83008C7.68211 8.61523 7.61961 8.38672 7.61961 8.14453C7.61961 7.96875 7.645 7.8125 7.69578 7.67578C7.53562 7.89062 7.34617 8.11328 7.12742 8.34375C6.90867 8.57031 6.67234 8.76172 6.41844 8.91797C6.16453 9.07031 5.90477 9.14648 5.63914 9.14648ZM6.10789 8.11523C6.23289 8.11523 6.38914 8.03516 6.57664 7.875C6.76805 7.71484 6.95164 7.52734 7.12742 7.3125C7.32273 7.07812 7.47703 6.86523 7.59031 6.67383C7.70359 6.48242 7.76023 6.35352 7.76023 6.28711C7.76023 6.13867 7.6743 6.02148 7.50242 5.93555C7.33055 5.8457 7.17625 5.80078 7.03953 5.80078C6.79734 5.80078 6.56687 5.87891 6.34812 6.03516C6.13328 6.19141 5.9575 6.39258 5.82078 6.63867C5.68406 6.88086 5.6157 7.13281 5.6157 7.39453C5.6157 7.54688 5.64305 7.70508 5.69773 7.86914C5.75633 8.0332 5.89305 8.11523 6.10789 8.11523ZM12.0966 4.34766C11.8545 4.34766 11.6845 4.31055 11.5869 4.23633C11.4892 4.1582 11.4345 4.05664 11.4228 3.93164C11.4228 3.74805 11.4892 3.56836 11.622 3.39258C11.7587 3.21289 11.9599 3.12305 12.2255 3.12305C12.4521 3.12305 12.6103 3.16797 12.7002 3.25781C12.79 3.34375 12.8349 3.45312 12.8349 3.58594C12.8349 3.73438 12.7763 3.89844 12.6591 4.07812C12.5459 4.25781 12.3584 4.34766 12.0966 4.34766ZM10.6611 9.14648C10.3447 9.14648 10.0947 9.06641 9.91109 8.90625C9.73141 8.74219 9.64156 8.48828 9.64156 8.14453C9.64156 7.90625 9.68453 7.66992 9.77047 7.43555C9.86031 7.19727 9.95797 6.97461 10.0634 6.76758C10.1728 6.55664 10.2587 6.37305 10.3212 6.2168C10.3408 6.16602 10.374 6.08789 10.4209 5.98242C10.4716 5.87695 10.5244 5.76953 10.5791 5.66016L10.7783 5.25C10.8447 5.14062 10.9209 5.0625 11.0068 5.01562C11.0927 4.96875 11.1806 4.94531 11.2705 4.94531C11.4189 4.94531 11.5459 4.99414 11.6513 5.0918C11.7607 5.18555 11.8154 5.30664 11.8154 5.45508C11.8115 5.49023 11.8056 5.52539 11.7978 5.56055C11.7939 5.5957 11.7822 5.63086 11.7627 5.66602C11.6767 5.82227 11.6025 5.96875 11.54 6.10547C11.4775 6.23828 11.413 6.37305 11.3466 6.50977C11.292 6.62305 11.2236 6.76172 11.1416 6.92578C11.0595 7.08984 10.9873 7.25586 10.9248 7.42383C10.8623 7.58789 10.831 7.73438 10.831 7.86328C10.831 7.96875 10.8564 8.03906 10.9072 8.07422C10.9619 8.10547 11.038 8.12109 11.1357 8.12109C11.292 8.12109 11.4638 8.07227 11.6513 7.97461C11.8427 7.87695 12.0244 7.75586 12.1962 7.61133C12.3759 7.4668 12.542 7.32031 12.6943 7.17188C12.8466 7.01953 12.9599 6.89648 13.0341 6.80273C13.1084 6.72852 13.1865 6.69141 13.2685 6.69141C13.3388 6.69141 13.3955 6.72266 13.4384 6.78516C13.4853 6.84766 13.5087 6.92773 13.5087 7.02539C13.5087 7.11523 13.4853 7.21094 13.4384 7.3125C13.3955 7.41406 13.3232 7.50977 13.2216 7.59961C12.9638 7.86133 12.6943 8.11133 12.413 8.34961C12.1318 8.58398 11.8427 8.77539 11.5459 8.92383C11.2529 9.07227 10.958 9.14648 10.6611 9.14648ZM12.8647 9.14648C12.5444 9.14648 12.3237 9.06641 12.2026 8.90625C12.0854 8.74609 12.0268 8.55078 12.0268 8.32031C12.0268 8.12891 12.0541 7.93359 12.1088 7.73438C12.1674 7.53125 12.2358 7.3457 12.3139 7.17773C12.4506 6.87305 12.5893 6.57031 12.7299 6.26953C12.8705 5.96875 12.9995 5.69336 13.1166 5.44336L14.892 1.66406C14.9819 1.46875 15.1166 1.3418 15.2963 1.2832C15.476 1.22461 15.6401 1.23047 15.7885 1.30078C15.9409 1.36719 16.017 1.49023 16.017 1.66992C16.017 1.74023 15.9995 1.81445 15.9643 1.89258C15.933 1.9707 15.892 2.05469 15.8413 2.14453C15.7006 2.41016 15.5209 2.75977 15.3022 3.19336C15.0873 3.62695 14.8491 4.11523 14.5873 4.6582C14.3022 5.25586 14.062 5.75781 13.8666 6.16406C13.6752 6.56641 13.4955 6.94727 13.3276 7.30664C13.2846 7.39648 13.2416 7.50195 13.1987 7.62305C13.1596 7.74023 13.1401 7.8457 13.1401 7.93945C13.1401 8.06836 13.1967 8.13281 13.31 8.13281C13.435 8.13281 13.601 8.08203 13.808 7.98047C14.019 7.875 14.2377 7.74414 14.4643 7.58789C14.6948 7.43555 14.9174 7.27734 15.1323 7.11328C15.3471 6.94531 15.5463 6.7832 15.7299 6.62695C15.7924 6.57617 15.8666 6.55078 15.9526 6.55078C16.1323 6.55078 16.2221 6.65039 16.2221 6.84961C16.2221 6.93164 16.1948 7.02344 16.1401 7.125C16.0854 7.22656 15.9897 7.32617 15.853 7.42383C15.603 7.6543 15.351 7.87305 15.0971 8.08008C14.8471 8.2832 14.5952 8.46484 14.3413 8.625C14.0913 8.78125 13.8413 8.90625 13.5913 9C13.3413 9.09766 13.0991 9.14648 12.8647 9.14648ZM15.8124 9.14648C15.6562 9.14648 15.4784 9.10352 15.2792 9.01758C15.0839 8.93555 14.914 8.80273 14.7695 8.61914C14.6249 8.43555 14.5527 8.19336 14.5527 7.89258C14.5527 7.65039 14.6093 7.35352 14.7226 7.00195C14.8398 6.65039 15.0175 6.30273 15.2558 5.95898C15.498 5.61133 15.8085 5.32227 16.1874 5.0918C16.5663 4.85742 17.0058 4.74023 17.5058 4.74023C17.705 4.74023 17.9159 4.77734 18.1386 4.85156C18.3652 4.92578 18.5585 5.05078 18.7187 5.22656C18.8788 5.39844 18.9589 5.63672 18.9589 5.94141C18.9589 6.19141 18.8964 6.48242 18.7714 6.81445C18.8417 6.90039 18.9413 6.94336 19.0702 6.94336C19.1913 6.94336 19.332 6.89453 19.4921 6.79688C19.6523 6.69922 19.8105 6.58008 19.9667 6.43945C20.1269 6.29883 20.2714 6.1582 20.4003 6.01758C20.5331 5.87695 20.6366 5.76367 20.7109 5.67773C20.7382 5.65039 20.7714 5.63672 20.8105 5.63672C20.8964 5.63672 20.9589 5.69141 20.998 5.80078C21.037 5.91016 21.0292 6.04883 20.9745 6.2168C20.9198 6.38086 20.7929 6.55078 20.5937 6.72656C20.4765 6.85156 20.332 7.00586 20.1601 7.18945C19.9921 7.36914 19.8085 7.5293 19.6093 7.66992C19.414 7.80664 19.2148 7.875 19.0116 7.875C18.8046 7.875 18.6093 7.80859 18.4257 7.67578C18.1366 8.12891 17.7695 8.48828 17.3241 8.75391C16.8788 9.01562 16.3749 9.14648 15.8124 9.14648ZM16.3222 8.12109C16.5683 8.12109 16.7987 8.03906 17.0136 7.875C17.2284 7.71094 17.4023 7.50391 17.5351 7.25391C17.6679 7.00391 17.7343 6.74805 17.7343 6.48633C17.7343 6.38477 17.7226 6.2793 17.6991 6.16992C17.6796 6.05664 17.6327 5.96289 17.5585 5.88867C17.4843 5.81055 17.3652 5.77148 17.2011 5.77148C16.9589 5.77148 16.7304 5.84961 16.5155 6.00586C16.3007 6.1582 16.1249 6.35742 15.9882 6.60352C15.8554 6.8457 15.789 7.09961 15.789 7.36523C15.789 7.46289 15.8007 7.57227 15.8241 7.69336C15.8476 7.81055 15.8964 7.91211 15.9706 7.99805C16.0487 8.08008 16.1659 8.12109 16.3222 8.12109Z" fill="url(#paint0_linear_2796_4821)"/>
<defs>
<linearGradient id="paint0_linear_2796_4821" x1="0.826087" y1="7.5" x2="19.5435" y2="7.5" gradientUnits="userSpaceOnUse">
<stop stop-color="#69CFFF"/>
<stop offset="1" stop-color="#9532FF"/>
</linearGradient>
</defs>
</svg>
